<svg version="1.1" xmlns="http://www.w3.org/2000/svg" xmlns:xlink="http://www.w3.org/1999/xlink" width="258.808" height="258.808" viewBox="0,0,258.808,258.808"><g transform="translate(-110.596,-50.596)"><g data-paper-data="{&quot;isPaintingLayer&quot;:true}" stroke="none" stroke-width="1" stroke-linecap="butt" stroke-linejoin="miter" stroke-miterlimit="10" stroke-dasharray="" stroke-dashoffset="0" style="mix-blend-mode: normal"><path d="M110.596,180c0,-71.46786 57.93614,-129.404 129.404,-129.404c71.46786,0 129.404,57.93614 129.404,129.404c0,71.46786 -57.93614,129.404 -129.404,129.404c-71.46786,0 -129.404,-57.93614 -129.404,-129.404z" fill="#0077b8" fill-rule="evenodd"/><path d="M112.45325,158.10427c-0.21212,1.23974 -0.40539,2.4889 -0.5798,3.73807c0.17441,-1.27273 0.36768,-2.5219 0.5798,-3.73807z" fill="#74b140" fill-rule="evenodd"/><path d="M113.47143,156.66184c-0.38725,0.43721 -0.73139,0.91079 -1.02761,1.41415c0.1697,-0.98676 0.34882,-1.96724 0.53738,-2.94143v-0.02828c0.19327,-0.98048 0.39596,-1.95152 0.60808,-2.92257c0.30806,0.12565 0.5944,0.29904 0.84849,0.51381c0.52323,0.44781 1.09832,1.24916 0.94277,1.98452c-0.18384,0.87677 -1.31987,1.34344 -1.9091,1.97981z" fill="#74b140" fill-rule="evenodd"/><path d="M128.02774,117.73976c-0.65406,0.61071 -1.41886,1.09071 -2.25321,1.41415c0.47453,-0.89563 0.96162,-1.78183 1.46129,-2.6586c3.48541,-6.14146 7.46776,-11.98728 11.90713,-17.47887c0.7165,-0.88934 1.444,-1.77083 2.1825,-2.64446c0.91072,0.25354 1.72283,0.77797 2.32863,1.50371c0.92391,1.1266 0.77307,1.72526 0.17913,2.66803c0.54751,-0.0678 1.08436,-0.204 1.59799,-0.40539c0.61837,-0.15966 1.26716,-0.15966 1.88553,0c1.2256,0.34411 2.19664,1.30573 2.94143,2.29563c1.21145,1.60742 1.98452,3.53066 2.86601,5.33134l2.80001,5.71787c0.80135,1.63098 2.32392,5.16164 -0.033,6.34481c-0.87569,0.38011 -1.8923,0.21833 -2.60675,-0.41482c-0.50438,-0.38182 -1.23031,-1.49428 -1.95152,-1.82425c0.24104,2.02489 0.80439,3.99819 1.6687,5.84515c0.14002,0.26013 0.11419,0.57824 -0.06598,0.81235c-0.18017,0.23412 -0.48105,0.34056 -0.76836,0.27183c-0.66171,-0.14457 -1.34505,-0.16057 -2.0128,-0.04714c0.3394,1.56028 0.3064,3.16769 -1.10775,4.21888c-0.19869,0.11292 -0.43822,0.12837 -0.64976,0.04191c-0.21155,-0.08646 -0.37169,-0.26525 -0.43442,-0.48501c-1.49007,-4.4616 -4.84925,-8.0531 -9.20139,-9.83776c-0.3001,-0.10551 -0.50091,-0.38896 -0.50091,-0.70707c0,-0.31811 0.20081,-0.60157 0.50091,-0.70707c1.67812,-0.4431 3.49295,-0.40539 5.12393,-1.01347c0.85589,-0.26749 1.5934,-0.82187 2.08823,-1.5697c0.4101,-0.76835 -0.00943,-1.54142 -0.23569,-2.3192c-0.79192,-2.70102 -1.95624,-6.43437 -5.39262,-6.5098c-3.33268,-0.08956 -2.6256,3.99261 -3.48823,6.12798c-0.74007,1.76297 -2.28149,3.09227 -4.24244,2.42762c-0.71179,-0.24041 -1.49428,-0.85792 -2.22021,-0.32525c-0.38723,0.38453 -0.68497,0.84965 -0.87206,1.3623c-0.42896,0.90505 -0.7825,1.83839 -1.49428,2.56432z" fill="#74b140" fill-rule="evenodd"/><path d="M175.07645,238.91813c1.1266,3.9219 -3.05927,5.96771 -4.32729,9.10712c-1.55085,3.82291 -0.033,8.18792 -1.75826,12.01555c-0.68983,1.54899 -1.94145,2.77871 -3.50237,3.44109c-1.9091,0.8532 -3.84648,1.27273 -5.38791,2.78587c-2.81887,2.76702 -3.97376,7.04717 -5.831,10.64854c-1.49428,-1.30573 -2.90843,-2.65389 -4.32258,-4.02561c-2.33806,-2.26735 -4.6007,-4.60541 -6.75963,-7.04246c-3.47339,-3.91123 -6.70671,-8.02922 -9.6822,-12.33137c-7.75688,-11.20699 -13.68525,-23.57447 -17.56372,-36.64058l0.05185,0.02828c2.85658,-2.32863 4.62898,-7.09431 9.04112,-5.87343c0.21889,0.06549 0.3963,0.22667 0.48241,0.43829c0.08612,0.21163 0.07166,0.45088 -0.03931,0.6506c-0.11785,0.25455 -0.23098,0.51381 -0.34882,0.77307l7.54212,0.96633c2.08351,0.26397 4.8411,0.1367 6.32596,1.84782c0.63637,0.73536 0.96162,1.68284 1.57913,2.42762c0.77883,0.85536 1.76881,1.49096 2.87072,1.84311c1.81482,0.67408 3.79935,0.90034 5.58589,1.68284c1.50478,0.59491 2.80597,1.61131 3.74749,2.92729c0.41375,0.61891 0.67095,1.32906 0.7495,2.06937c0.10842,1.10304 -0.27812,1.72526 0.82492,2.47476c1.10304,0.7495 2.47476,1.26802 3.66736,1.88553c0.99462,0.51852 1.98452,1.07475 2.99799,1.54614c2.08823,0.99933 4.15288,0.63165 6.28825,1.24916c0.80633,0.24782 1.53524,0.69913 2.11651,1.31044c0.26624,0.3094 0.55117,0.60221 0.8532,0.87677c0.58923,0.46196 1.2963,0.45253 2.00338,0.58451c1.38587,0.25926 2.42291,0.94748 2.7953,2.33334z" fill="#74b140" fill-rule="evenodd"/><path d="M111.80816,183.17004c-0.36148,-0.20683 -0.80267,-0.21834 -1.17445,-0.03063c-0.03771,-1.04647 -0.03771,-2.08823 -0.03771,-3.13941c0,-0.97733 0.01886,-1.95624 0.05657,-2.93671c0,-0.31111 0,-0.62694 0,-0.94277c0.02357,-0.67879 0.04714,-1.3623 0.08014,-2.04109c0.01886,-0.42424 0.06128,-0.84849 0.06128,-1.26802c0.03771,-0.74007 0.08485,-1.43772 0.1367,-2.15422c0.03771,-0.58451 0.08956,-1.16432 0.1367,-1.74412l0.1037,-0.74478c0.1917,-2.12436 0.43524,-4.23616 0.73064,-6.33538c0.32054,0.37711 0.82021,0.50909 1.54142,0.08014c0.72122,-0.42896 1.03233,-1.25388 1.27745,-2.00809c0.47138,-1.44243 0.7825,-4.42157 2.61617,-4.89295c1.50842,-0.38182 2.21079,1.39529 2.28621,2.56432c0.00797,0.88698 -0.09979,1.77121 -0.32054,2.63032c2.05523,-1.68284 5.24178,-3.79935 1.84782,-5.72259c-1.06617,-0.55329 -1.90138,-1.467 -2.35691,-2.57846c-0.62223,-1.34815 -1.39058,-2.12122 -2.899,-2.35691c-0.53987,-0.07946 -1.08539,-0.11415 -1.63098,-0.1037c0.50909,-2.10237 1.07475,-4.19059 1.68284,-6.25525c0.05185,-0.1697 0.1037,-0.3394 0.15084,-0.50438c0.18384,-0.6128 0.37239,-1.2256 0.56566,-1.83368c0.07071,-0.21212 0.14613,-0.45724 0.22155,-0.68351c0.29226,-0.90505 0.59394,-1.81011 0.90505,-2.70574l0.47138,-1.32459l0.44781,-1.2256c0.20269,-0.53266 0.40539,-1.07004 0.6128,-1.6027c0.12256,-0.31583 0.24041,-0.63165 0.36296,-0.94277c0.37239,0.27812 0.73536,0.55152 1.07475,0.81549c3.5448,2.81416 6.45323,7.26401 5.51046,11.8977c1.0559,0 1.91381,-0.87677 2.23435,-1.92324c0.40539,-1.34344 0.00471,-2.81416 -0.3064,-4.13874c-0.05953,-0.22292 -0.01306,-0.46084 0.12596,-0.64498c0.13903,-0.18414 0.35512,-0.29399 0.58582,-0.29779c1.721,0.25452 3.402,-0.66354 4.1181,-2.24903c0.7161,-1.5855 0.29351,-3.45366 -1.03526,-4.57659c-0.16107,-0.16232 -0.23805,-0.38998 -0.20855,-0.61674c0.0295,-0.22676 0.16216,-0.42715 0.3594,-0.54286c2.67282,-1.09488 4.55434,-3.53762 4.93066,-6.40138c0.00778,-0.26155 0.15058,-0.50039 0.3773,-0.63104c0.22672,-0.13065 0.50496,-0.13445 0.73516,-0.01004c2.40405,1.02761 5.17578,2.36634 6.27882,4.91181c0.62694,1.433 0.07542,3.55894 1.70641,4.31315c1.93267,0.89091 3.88419,-0.62223 5.33134,-1.76297c0.2161,-0.1982 0.52749,-0.25319 0.7984,-0.14098c0.27091,0.11221 0.45223,0.37126 0.4649,0.66422c0.62163,5.70038 2.21601,11.25199 4.71383,16.41355c0.16255,0.29088 0.1121,0.65434 -0.12352,0.88996c-0.23562,0.23562 -0.59907,0.28606 -0.88996,0.12352c-1.34344,-0.7165 -3.08284,1.08418 -4.24244,1.61213c-1.33401,0.60808 -2.63503,0.50909 -4.01618,0.1037c-1.7724,-0.51852 -3.33268,-1.06061 -5.18521,-0.58923c-1.29182,0.33171 -2.45642,1.03867 -3.34682,2.03166l4.51113,0.1037c0.23084,0.0042 0.44704,0.11391 0.58675,0.29773c0.1397,0.18382 0.18751,0.4215 0.12976,0.64504c-0.44124,2.24 0.33936,4.5459 2.05052,6.05727c0.17975,0.18903 0.24829,0.45793 0.18096,0.70994c-0.06733,0.25201 -0.26085,0.45089 -0.51093,0.52508c-1.23031,0.38653 -2.46533,0.85792 -3.71921,1.1596c-0.6401,0.22666 -1.34966,0.13753 -1.91381,-0.24041c-0.63165,-0.4761 -1.00405,-1.30102 -1.35287,-2.03637c-0.13107,0.23168 -0.28932,0.44689 -0.47138,0.64108c-0.7825,0.82492 -1.84782,0.94748 -2.88015,1.2963c-1.45657,0.49024 -3.1347,1.86668 -2.32392,3.58251c0.12669,0.23055 0.1241,0.51045 -0.00683,0.73861c-0.13093,0.22817 -0.37128,0.37162 -0.63425,0.37857c-2.87918,0.27806 -5.51839,1.7246 -7.30172,4.00204c-0.38653,0.4761 -1.06061,0.14141 -1.23502,-0.32997c-0.00255,-0.01561 -0.00255,-0.03153 0,-0.04714c0.03771,0.95691 0.36768,1.95152 0.28754,2.89429c-0.09888,0.93336 -0.4823,1.81376 -1.09832,2.5219c-1.51785,1.85253 -3.86534,2.46062 -5.79329,3.73807c-4.55827,3.01214 -0.29697,8.99398 -3.01214,12.98188c-0.11799,0.19589 -0.31895,0.32719 -0.54573,0.35657c-0.22678,0.02938 -0.45457,-0.04638 -0.61858,-0.20573c-1.042,-1.23035 -1.67615,-2.75396 -1.81482,-4.36029c-0.07542,-0.97576 0.31111,-1.91853 0.24041,-2.86129c-0.02656,-0.41563 -0.26004,-0.79015 -0.62152,-0.99698z" fill="#74b140" fill-rule="evenodd"/><path d="M117.12937,198.86002c-1.27273,-0.34882 -2.54547,-0.45724 -3.56837,-1.37172c-0.67879,-0.60337 -1.09361,-1.34344 -1.99395,-1.6357c-0.11785,-0.97105 -0.22626,-1.9421 -0.32525,-2.92257c0.50909,0.1697 0.99933,0.39125 1.41415,0.57037c0.905,0.39241 1.77272,0.86571 2.59261,1.41415c0.72593,0.49024 1.39058,1.19731 2.16836,1.59327c1.03704,0.52323 2.26735,0.28754 3.39396,0.27812c1.1266,-0.00943 2.2485,0.03771 3.3751,0.10842c0.58451,0.04242 1.05118,0.82021 0.52323,1.26331c-1.07475,0.90505 -2.31449,1.89967 -3.77106,2.02695c-1.50842,0.12727 -2.43705,-0.93334 -3.80877,-1.32459z" fill="#74b140" fill-rule="evenodd"/><path d="M127.66948,200.16576c1.38587,0.03771 3.16769,0.77778 2.28149,2.46533c-0.13112,0.22924 -0.37705,0.36847 -0.64108,0.36296c-1.53671,-0.09899 -2.77173,0.34882 -4.24244,0.58923c-0.70264,0.14727 -1.43501,0.01902 -2.0458,-0.35825c-0.21749,-0.03124 -0.41318,-0.14892 -0.54273,-0.32639c-0.12955,-0.17747 -0.18201,-0.39971 -0.14548,-0.61638c0.01763,-0.30479 0.19764,-0.57661 0.47138,-0.71179c0.4431,-0.55623 0.92391,-1.2256 1.58856,-1.41415c0.96162,-0.27812 2.29092,-0.01886 3.27611,0.00943z" fill="#74b140" fill-rule="evenodd"/><path d="M142.7773,94.62315c0.91763,-1.06533 1.86039,-2.11179 2.8283,-3.13941c0.10283,0.14834 0.19123,0.30619 0.26397,0.47138c0.70707,1.5697 -0.41482,2.77644 -2.00338,2.77644c-0.36517,-0.00876 -0.72916,-0.04501 -1.08889,-0.10842z" fill="#74b140" fill-rule="evenodd"/><path d="M148.88301,90.45749c-0.27859,0.11411 -0.59842,0.05045 -0.81208,-0.16163c-0.25612,-0.20328 -0.52892,-0.38462 -0.81549,-0.54209c0.71022,-0.72593 1.42829,-1.44715 2.15422,-2.16365c0,0.11313 0,0.22626 0,0.34882c-0.01886,0.6128 -0.06128,1.22088 -0.06128,1.83368c-0.0035,0.30103 -0.18678,0.57076 -0.46536,0.68486z" fill="#74b140" fill-rule="evenodd"/><path d="M150.55512,86.47766c0.8862,-0.84378 1.78654,-1.67812 2.6916,-2.50304c0.05657,-0.04714 0.11313,-0.09428 0.16498,-0.14613c0.83435,-0.7495 1.67812,-1.48486 2.53133,-2.2155l0.37711,-0.32054c0.82021,-0.69136 1.64984,-1.38115 2.4889,-2.06937l0.28754,-0.23098c0.92391,-0.74164 1.85725,-1.47071 2.80001,-2.18722c1.72997,0.39125 3.6815,0.33468 4.96366,1.82897c0.17952,0.18932 0.24844,0.45798 0.18223,0.71034c-0.06621,0.25236 -0.25814,0.45258 -0.50749,0.52939l-3.77106,1.05118c-0.9899,0.2734 -2.16836,0.43367 -3.05456,0.97576c-0.80135,0.48552 -1.07475,1.39529 -1.98452,1.74412c-0.76364,0.29697 -1.53671,0.14613 -2.32392,0.14613c-1.62627,0.02828 -1.04647,0.82021 -1.62627,1.83839c-0.30208,0.51429 -0.82324,0.86173 -1.41415,0.94277c-0.60808,0.12727 -1.2256,-0.09428 -1.8054,-0.09428z" fill="#74b140" fill-rule="evenodd"/><path d="M192.71559,118.36199c-0.90023,0.1678 -1.76562,0.48654 -2.55961,0.94277c-0.70236,0.44781 -1.16432,1.11246 -1.76297,1.67341c-1.13603,1.0559 -2.27206,1.1266 -3.77106,1.0559c-3.70978,-0.17441 -5.37376,3.50237 -6.53808,6.45794c-1.00405,2.54547 -2.10237,5.09565 -4.51585,6.59936c-0.2302,0.12964 -0.51166,0.1285 -0.74081,-0.00299c-0.22915,-0.1315 -0.37214,-0.37392 -0.37637,-0.63809c-0.10947,-1.3579 -0.96261,-2.54322 -2.2155,-3.07813c-0.64108,-0.26869 -1.41415,-0.34411 -1.88553,-0.89091c-0.58451,-0.64579 -0.38182,-1.3293 -0.33468,-2.10708c0.07542,-1.36701 -0.44781,-2.42762 -1.03233,-3.63908c-0.82021,-1.69698 -1.31044,-3.32796 -1.07475,-5.21349c0.22626,-1.83368 0.97105,-3.5448 1.70169,-5.22292c0.83906,-1.98452 1.84311,-4.07275 1.88553,-6.28353c0.04242,-2.59261 -1.42358,-4.61484 -2.78587,-6.67007c-1.17846,-1.78654 -0.77307,-4.14817 -2.24378,-5.73201c-1.35478,-1.474 -3.48521,-1.94638 -5.33605,-1.18317c-0.19869,0.11292 -0.43822,0.12837 -0.64976,0.04191c-0.21155,-0.08646 -0.37169,-0.26525 -0.43442,-0.48501c-0.19156,-0.81234 -0.03245,-1.66778 0.43839,-2.35691l-1.74412,-0.57037c-0.2493,-0.07535 -0.44162,-0.27471 -0.50795,-0.52657c-0.06633,-0.25185 0.00284,-0.52008 0.18269,-0.70845c0.2973,-0.37233 0.65599,-0.69116 1.06061,-0.94277c-0.79316,-0.71081 -1.25292,-1.72092 -1.26802,-2.78587c0.00257,-0.40766 0.33241,-0.7375 0.74007,-0.74007l4.63841,-0.02357l-0.6128,-2.30035c-0.06152,-0.22308 -0.01585,-0.46209 0.12358,-0.64678c0.13944,-0.18469 0.3568,-0.29406 0.5882,-0.29599c2.58789,0.28754 4.50642,-0.54209 6.83034,-1.48486c1.63098,-0.67408 3.49295,-0.64108 5.23235,-0.60337c1.55154,-0.02581 3.0928,0.25617 4.5347,0.82963c0.74033,0.33074 1.41192,0.79766 1.97981,1.37644l0.42424,0.47138c0.38182,0.30168 0.50909,0.30168 0.38182,0c0.07542,-0.1697 -0.12727,-0.71179 -0.1037,-0.94277c0.11313,-1.24445 1.30102,-1.97981 2.43234,-2.11651c1.13132,-0.1367 2.2155,0.23098 3.34682,-0.05657c0.9899,-0.25926 1.90439,-0.80606 2.87543,-1.15017c1.466,-0.51852 3.29025,-0.68351 4.45928,0.53738c0.51678,0.52599 0.80771,1.23301 0.81078,1.97038c2.36163,-0.47138 6.32596,-1.17374 6.63236,1.41415c0.06703,0.54684 -0.12063,1.09419 -0.50909,1.48486c0.47918,-0.01438 0.95734,0.05256 1.41415,0.19798c0.24934,0.07681 0.44128,0.27703 0.50749,0.52939c0.06621,0.25236 -0.00271,0.52102 -0.18223,0.71034c-1.37644,1.41886 0.74478,0.58923 1.45186,0.37239c0.74642,-0.2259 1.52617,-0.32157 2.30506,-0.28283c1.5551,0.07789 3.0433,0.65664 4.24244,1.64984c0.19167,0.18685 0.26582,0.46356 0.19327,0.72122c-0.56095,2.27206 -3.2714,1.51314 -4.46399,3.04513c-0.70707,0.90505 -0.58923,2.28149 -0.75893,3.36096c-0.1832,1.00302 -0.58031,1.9548 -1.16432,2.79059c-1.48486,2.46062 0.64579,5.85457 -0.72122,8.42361c-0.58599,1.16167 -1.98983,1.64633 -3.16769,1.09361l-0.56566,0.78721c1.85176,1.68411 2.03922,4.53145 0.42424,6.4438c-0.13897,0.17013 -0.35838,0.25286 -0.57509,0.21684c0.20937,0.22515 0.244,0.56186 0.08485,0.82492c-1.51314,2.72931 -4.61955,3.02156 -7.32057,3.65793z" fill="#74b140" fill-rule="evenodd"/><path d="M201.50688,130.05699c-1.35758,-0.10842 -3.29497,-0.41482 -4.13874,-1.61684c-0.94277,-1.34815 -0.08014,-3.61079 -1.47071,-4.68083c-0.40587,-0.56299 -0.40587,-1.32254 0,-1.88553c0.76835,-1.31987 1.74883,-0.9192 2.53604,-0.7165c0.6901,0.18173 1.30738,0.57185 1.76769,1.11718c0.80606,0.93334 1.30573,1.42358 2.61617,1.07475c1.76769,-0.47138 3.21954,-2.05052 5.18521,-1.70641c1.46129,0.26869 1.28216,1.44243 1.04176,2.6256c-0.32525,1.61684 -0.7165,3.60608 -2.17779,4.57713c-1.61146,0.96549 -3.48957,1.39 -5.35962,1.21145z" fill="#74b140" fill-rule="evenodd"/><path d="M234.83986,97.05749c-0.24534,-0.06682 -0.43963,-0.2542 -0.51531,-0.49695c-0.35825,-1.71583 -2.40405,-2.4559 -2.05523,-4.46871c0.29697,-1.75826 1.88553,-2.50776 3.50237,-2.22964c0.21324,0.03242 0.39295,0.17619 0.47138,0.37711c0.75421,-0.3064 1.48486,-1.18788 1.95624,-1.56028c0.55331,-0.45466 1.19556,-0.78863 1.88553,-0.98048c1.43772,-0.38182 2.98385,-0.1367 4.398,0.21684c1.01347,0.25455 2.38048,0.55152 2.6256,1.75826c0.18855,0.9899 -0.65994,1.98924 -1.51785,2.24378c-0.85792,0.25455 -1.71583,-0.04242 -2.53133,-0.26397c-0.55152,-0.1367 -0.80135,-0.31111 -1.3623,0c-0.7165,0.41482 -0.43839,0.62223 -0.43839,1.35758c0.02357,1.45657 -0.23098,3.01685 -1.49428,3.93133c-0.75421,0.54209 -1.96567,0.76364 -2.66331,0c-0.31729,-0.34544 -0.44266,-0.82572 -0.33468,-1.28216l-0.03771,0.04242c-0.34411,0.41953 -0.81078,0.80606 -1.1926,1.18788c-0.18833,0.17085 -0.45081,0.23381 -0.69615,0.16698z" fill="#74b140" fill-rule="evenodd"/><path d="M293.81777,212.14831c-1.81954,8.35762 -9.36166,13.31656 -13.60411,20.31188c-1.17178,1.85215 -1.98861,3.90622 -2.40877,6.05727c-0.4431,2.54547 0.18855,4.93066 0.57509,7.42899c0.4761,3.11113 0.14613,6.97175 -3.04513,8.52731c-0.80606,0.39596 -1.73469,0.52795 -2.40877,1.25388c-0.67408,0.72593 -0.77307,1.80068 -0.8532,2.74345c-0.13199,1.56028 -0.16027,3.05927 -0.72122,4.54884c-1.2256,3.2714 -3.61079,6.10441 -5.73673,8.829c-1.91381,2.4559 -3.37981,5.73673 -6.04784,7.47142c-1.71112,1.12189 -4.03504,1.24916 -6.01956,1.41415c-1.76297,0.14141 -4.2283,0.50909 -5.90643,-0.23569c-1.11718,-0.49495 -1.71112,-2.13536 -2.1825,-3.15826c-0.70618,-1.53972 -1.27866,-3.1373 -1.71112,-4.77511c-1.05118,-3.82291 -2.03166,-7.6034 -3.17712,-11.43575c-1.14546,-3.83234 -1.95152,-7.8061 -1.37172,-11.80814c0.32525,-2.25321 0.95219,-4.45928 0.73064,-6.75492c-0.19287,-1.93023 -0.83892,-3.78762 -1.88553,-5.4209c-0.93805,-1.46129 -2.55018,-2.51718 -3.25725,-4.10574c-0.70707,-1.58856 -0.09899,-3.14412 0.47138,-4.66198c0.36296,-0.92862 0.81549,-2.06466 0.47138,-3.06399c-0.37711,-1.09832 -1.55556,-1.07475 -2.47476,-1.41415c-1.20674,-0.4431 -2.13536,-1.30573 -3.12998,-2.08823c-0.75893,-0.59866 -1.68284,-1.35758 -2.72931,-1.11246c-0.7165,0.1697 -1.28216,0.77778 -1.88553,1.19731c-1.31987,0.9192 -2.7623,0.9899 -4.31787,0.8862c-1.20674,-0.08485 -2.37106,-0.20269 -3.53537,0.21684c-0.77307,0.27812 -1.48486,0.71179 -2.22964,1.0559c-1.23031,0.56095 -2.53604,0.93805 -3.88419,0.56095c-1.54142,-0.42896 -2.72459,-1.61213 -3.80406,-2.72459c-1.41415,-1.45657 -2.91315,-2.88486 -4.20945,-4.44043c-1.18317,-1.41415 -1.14075,-2.82358 -1.61213,-4.50642c-0.44781,-1.53199 -1.88553,-2.05994 -2.8283,-3.22897c-0.7767,-0.90885 -0.83122,-2.23097 -0.13199,-3.20069c0.4761,-0.7495 1.14075,-1.31516 1.17846,-2.25792c0.01949,-1.00749 -0.55717,-1.93164 -1.47071,-2.35691c-0.22603,-0.13489 -0.36539,-0.37787 -0.36768,-0.64108c-0.14001,-2.65509 0.82388,-5.24994 2.66331,-7.16973c0.52323,-0.53266 1.17374,-0.9192 1.68755,-1.44715c0.71179,-0.73064 0.56566,-1.41886 0.71179,-2.29563c0.14346,-0.88626 0.82153,-1.59063 1.70169,-1.76769c1.07947,-0.30168 2.14951,-0.12727 2.89429,-1.13132c0.56095,-0.76364 0.74007,-1.80068 0.94277,-2.71045c0.40539,-1.88553 0.82963,-3.74749 2.29092,-5.13336c3.62965,-3.43638 8.97984,-2.02223 13.42027,-2.33334c1.68792,-0.14091 3.32593,-0.64244 4.80339,-1.47071c0.91448,-0.47138 1.90439,-1.00876 2.965,-1.00876c2.25792,-0.04714 2.85187,1.89496 3.74749,3.53537c0.76364,1.40472 1.99395,1.6027 3.4081,2.07408c0.96393,0.31791 1.86057,0.81178 2.64446,1.45657c1.06061,0.8532 2.12122,2.16836 3.50709,2.47005c0.70236,0.15084 1.98452,-0.07542 2.41348,-0.76835c-0.51381,-1.29159 0.55623,-2.63974 1.9421,-2.78587c1.25859,-0.14141 2.60675,0.45724 3.77106,0.80135l4.20002,1.23502c2.13536,0.63165 4.58184,1.09832 6.15155,2.66331c1.5697,1.56499 2.88015,3.49295 4.21416,5.26063c1.4765,1.92053 2.82746,3.93438 4.04446,6.02899c1.15017,2.03637 1.95152,4.21888 3.03571,6.27882c1.13603,2.15893 3.01214,3.47409 4.46399,5.35962c1.13132,1.466 1.82425,3.95019 3.77106,4.52999c1.72997,0.50909 3.6485,-0.7165 5.18521,-1.32459c1.45657,-0.57509 2.96971,-0.94277 4.47814,-0.33468c0.34707,0.14063 0.54221,0.51099 0.46196,0.87677z" fill="#74b140" fill-rule="evenodd"/><path d="M292.31406,251.48991c-0.35719,1.52698 -0.92683,2.9963 -1.69226,4.365c-0.87206,1.70641 -1.95624,3.1347 -2.38991,5.04851c-0.32525,1.433 -0.53738,2.92729 -1.34815,4.19059c-0.99933,1.55085 -4.03975,3.16769 -4.98252,0.60808c-0.81078,-2.22964 -0.42424,-5.07208 1.24445,-6.75492c-0.58939,-2.15722 -0.14543,-4.46579 1.20203,-6.25054c0.92862,-1.20203 2.2155,-1.66398 3.36096,-2.68688c1.14546,-1.0229 1.83839,-2.43705 2.51718,-3.77106c0.17253,-0.28384 0.51217,-0.41912 0.8326,-0.33163c0.32043,0.08749 0.5442,0.3766 0.54855,0.70873c-0.08956,1.69226 1.0229,3.1017 0.70707,4.8741z" fill="#74b140" fill-rule="evenodd"/><path d="M211.07595,143.90622c0.12177,-0.32474 0.47276,-0.50126 0.80606,-0.40539c0.33321,-0.07391 0.68022,-0.05599 1.00405,0.05185c0.22644,0.0678 0.40358,0.24495 0.47138,0.47138c0.57252,0.24166 1.08444,0.60708 1.499,1.07004c0.80606,0.93805 0.82963,2.25792 1.00876,3.42695c0.14141,0.90977 0.32997,1.78183 -0.68822,2.1825c-1.46095,0.52302 -2.97554,0.88191 -4.51585,1.07004c-0.90977,0.12256 -1.85725,-0.02357 -2.21079,-1.04176c-0.35354,-1.01819 0.31111,-1.78654 0.96633,-2.43234c0.36871,-0.31608 0.64415,-0.7268 0.79664,-1.18788c0.01699,-0.45435 0.00597,-0.90931 -0.033,-1.3623c0.02137,-0.50627 0.18472,-0.99631 0.47138,-1.41415c0.12073,-0.16206 0.26353,-0.30644 0.42424,-0.42896z" fill="#74b140" fill-rule="evenodd"/><path d="M217.11908,142.6052c-0.55972,-1.29516 -0.69182,-2.73507 -0.37711,-4.11046c0.17441,-0.80135 0.5798,-1.36701 1.44243,-1.41415c1.67341,-0.09428 2.0128,0.4101 2.6586,2.03637c0.68351,1.72526 2.1825,2.92257 2.86129,4.67612c0.34882,0.84686 0.48945,1.76502 0.4101,2.67745c-0.04714,0.46196 -0.20741,0.85792 -0.29697,1.3293c-0.16498,0.83435 0.03771,1.52728 0.12256,2.35691c0.1697,1.6027 -0.67879,1.96095 -2.02695,2.47005c-1.15017,0.42424 -3.70978,1.28687 -4.62427,-0.04714c-0.82021,-1.23502 0.37711,-3.60136 0.94277,-4.71383c0.66936,-1.26331 1.10775,-2.14008 0.19798,-3.37981c-0.50709,-0.57493 -0.94676,-1.20597 -1.31044,-1.88082z" fill="#74b140" fill-rule="evenodd"/><path d="M336.0301,215.96179c0.28904,0.74983 0.39097,1.55882 0.29697,2.35691c0.04205,0.81602 -0.01334,1.63414 -0.16498,2.43705c-0.32997,1.31044 -1.81954,1.95152 -2.8283,0.83906c-0.52795,-0.5798 -0.58451,-1.35758 -0.58451,-2.10237c-0.033,-1.11246 0,-2.22964 0,-3.34682c0.002,-0.1202 0.03271,-0.23818 0.08956,-0.34411c0.01363,-0.16223 0.08175,-0.31507 0.19327,-0.43367c0.89563,-0.99933 2.44176,-0.53738 2.99799,0.59394z" fill="#74b140" fill-rule="evenodd"/><path d="M361.0511,225.83255c-0.27812,0.72593 -0.53266,1.40943 -0.84378,2.17307c-0.31111,0.76364 -0.62223,1.52728 -0.94277,2.28149c-0.55623,-0.84849 -1.10775,-1.69698 -1.6687,-2.54547l-2.20607,-3.3421c-0.67408,-1.01819 -1.31987,-2.16365 -2.5219,-2.61146c-0.77778,-0.00943 -1.05118,-1.24445 -0.19327,-1.44715h0.05657c0.06371,-0.02249 0.13046,-0.0352 0.19798,-0.03771c1.87139,-0.31583 3.25725,0.79192 4.48756,2.14008c1.14195,1.20205 2.35562,2.33387 3.63436,3.38924z" fill="#74b140" fill-rule="evenodd"/><path d="M273.52474,101.91544c1.83368,-2.17779 3.77106,-4.28016 5.65659,-6.42023l2.8283,-3.2054c0.74478,-0.8532 1.44715,-1.83368 2.38991,-2.49833c1.25859,-0.88149 3.07813,-0.97576 3.77106,0.60808c0.69293,1.58385 -0.31111,3.1017 -1.58385,3.99261c-2.2155,1.55085 -8.22563,6.89162 -5.70845,9.76234c0.90977,1.03704 0,3.95019 -0.54209,4.14345c-0.40539,0.86263 -2.61146,0.65051 -2.54075,0.47138c-1.50371,-0.36296 -1.67812,-0.40068 -2.8283,-1.50842c-1.45657,-1.40001 -2.90843,-3.5448 -1.44243,-5.34548z" fill="#74b140" fill-rule="evenodd"/><path d="M369.38986,180c-0.00314,0.97733 -0.01571,1.95467 -0.03771,2.932c0,0.21212 0,0.42424 0,0.63165c-0.02357,0.83906 -0.05657,1.6687 -0.09428,2.50304c-0.01886,0.40068 -0.06128,0.80135 -0.06128,1.19731c-0.02828,0.55623 -0.06599,1.11246 -0.1037,1.66398c-0.05185,0.74007 -0.1037,1.43772 -0.16498,2.15422c-0.033,0.11785 -0.033,0.23098 -0.033,0.34882c-0.10056,1.15646 -0.21684,2.30663 -0.34882,3.45052c-0.09742,0.87991 -0.20584,1.75669 -0.32525,2.63032c-0.16341,1.1816 -0.34097,2.36006 -0.53266,3.53537c-0.02828,0.19327 -0.06128,0.38653 -0.09428,0.5798c-0.15084,0.87363 -0.30797,1.74412 -0.47138,2.61146c-0.07071,0.36768 -0.1367,0.73536 -0.21212,1.09832c-0.08956,0.45724 -0.18384,0.90034 -0.27812,1.37172c-0.15084,0.72593 -0.31111,1.45186 -0.47138,2.17307c-0.07542,0.32997 -0.15556,0.65994 -0.23569,0.9899c-0.16027,0.64108 -0.31111,1.26331 -0.47138,1.88553l-0.19798,0.80135c-0.4651,1.7944 -0.96948,3.57465 -1.51314,5.34077c-0.28912,0.94277 -0.5908,1.88553 -0.90505,2.8283v0.03771c-0.3174,0.94277 -0.64108,1.88553 -0.97105,2.8283c-1.4369,-1.80376 -2.61713,-3.79779 -3.50709,-5.92528c-0.8759,-2.16539 -1.47152,-4.43383 -1.7724,-6.7502c-0.3394,-2.33806 -0.60337,-4.69497 -1.69226,-6.79734c-0.90505,0.73064 -2.08351,1.14546 -2.97914,0.08956c-0.65051,-0.76364 -0.8862,-1.90439 -1.31987,-2.80001c-0.53163,-1.08811 -1.13967,-2.13721 -1.81954,-3.13941c-0.76835,-1.13132 -1.5697,-2.66803 -3.09227,-2.47947c-0.88149,0.10842 -1.47071,0.43367 -2.38991,0.13199c-0.60863,-0.20393 -1.14875,-0.57272 -1.56028,-1.06533c-0.47065,1.71668 -1.35798,3.29056 -2.58318,4.58184c-1.03233,1.01819 -2.29563,1.64513 -3.07813,2.90372c-0.62334,1.09519 -1.04185,2.29482 -1.23502,3.54008c-0.79664,4.17174 -0.54209,9.71049 -5.03908,11.8647c-0.35414,0.19654 -0.80021,0.08036 -1.01347,-0.26397c-1.88553,-3.55894 -3.77106,-7.13674 -5.07208,-10.95494c-1.0229,-2.97443 -1.13132,-6.48151 -2.35691,-9.42766c-0.08014,0.42424 -0.16027,0.8532 -0.23569,1.27745c-0.06552,0.25437 -0.26415,0.453 -0.51852,0.51852c-1.62156,0.22155 -2.63974,-0.70236 -3.50709,-1.98452c-1.20674,-1.78654 -2.2485,-3.69564 -3.33739,-5.58117l-0.11785,0.02357c-2.43705,0.25926 -4.8741,0.54209 -7.31586,0.7825c-1.55556,0.14613 -3.08756,0.19327 -4.38386,-0.79664c-0.77778,-0.57509 -1.31987,-1.43772 -2.19193,-1.85725c-0.27821,-0.1302 -0.57097,-0.22673 -0.87206,-0.28754c1.71583,2.34749 2.22964,6.29767 5.27477,6.90576c0.39284,0.11006 0.62402,0.51568 0.51852,0.90977c-3.50709,8.71587 -13.06673,11.27548 -21.38192,13.0903c-0.22354,0.05776 -0.46122,0.00995 -0.64504,-0.12976c-0.18382,-0.1397 -0.29352,-0.3559 -0.29773,-0.58675c-0.34411,-3.70035 -4.32729,-5.88286 -5.86872,-9.06469c-0.93334,-1.91853 -1.43772,-3.97847 -2.4889,-5.864c-0.86734,-1.54614 -3.02628,-5.29363 -5.20878,-4.90238c-0.39267,0.09503 -0.79142,-0.13223 -0.90977,-0.51852c-0.53738,-2.05523 -3.28554,-3.2714 -2.46062,-5.71316c0.41482,-1.24445 1.64984,-2.13065 2.35691,-3.2054c0.77785,-1.20611 1.27854,-2.56972 1.466,-3.99261c-2.80001,-0.07542 -5.60003,-0.14141 -8.40004,-0.22155c-1.97038,-0.03771 -3.5778,-0.3394 -4.32729,-2.35691c-0.31583,-0.8532 -0.33468,-1.80068 -0.65994,-2.64917c-0.25926,-0.68351 -1.24916,-2.29092 -2.08823,-0.87677c-0.26397,0.40539 -0.04714,1.37644 0,1.81954c0.14141,1.31516 0.13199,3.11584 -1.23031,3.86534c-1.59799,0.88149 -2.74345,-0.83906 -3.23369,-2.09765c-0.49024,-1.25859 -0.65051,-2.64917 -1.23502,-3.87005c-0.62223,-1.2963 -1.76297,-2.06466 -2.88958,-2.88015l-3.70035,-2.67745c-0.22626,-0.16498 -1.48014,-1.30573 -1.72055,-1.2256c-0.9192,0.30168 0.09899,1.1266 0.37239,1.44715c1.7973,2.0518 4.00972,3.69866 6.49094,4.83167c0.24946,0.15493 0.38547,0.44128 0.34792,0.73253c-0.03755,0.29125 -0.24173,0.53374 -0.52233,0.62034c-1.17846,0.22155 -1.44715,1.74883 -1.88553,2.6916c-0.36128,0.84705 -0.98836,1.55355 -1.78654,2.0128c-1.69091,0.90548 -3.77791,0.57403 -5.10508,-0.81078c-0.20244,-0.21473 -0.26003,-0.52828 -0.1471,-0.80093c0.11293,-0.27265 0.37535,-0.45366 0.67033,-0.46237c0.49413,-0.01234 0.98555,-0.07713 1.466,-0.19327c0.46333,-0.0858 0.87456,-0.34981 1.14546,-0.73536l-0.39596,-1.21617c-0.41482,-0.35825 -1.44243,-0.30168 -1.97981,-0.64579c-1.06061,-0.68822 -1.59799,-1.89496 -2.06937,-3.01214c-0.25616,-0.76614 -0.65081,-1.47875 -1.16432,-2.10237c-0.3135,-0.37266 -0.7201,-0.65566 -1.17846,-0.82021c-0.84378,-0.22626 -1.07475,0.36768 -1.54614,0.90505c-0.64579,0.72593 -1.37172,1.41415 -2.43234,0.94277c-0.96633,-0.43367 -1.38115,-1.62627 -1.47071,-2.60675c-0.03771,-0.40068 0.12256,-2.31449 -0.25455,-2.51718c-0.2734,-0.14141 -0.39125,1.37172 -0.39125,1.52728c0,0.8862 0.05185,1.92796 -0.47138,2.69631c-0.20489,0.31379 -0.50101,0.55727 -0.84849,0.69765c-0.17429,0.06222 -0.35714,0.0972 -0.54209,0.1037l0.47138,0.25926c0.22204,0.13632 0.35735,0.37818 0.35735,0.63872c0,0.26055 -0.13531,0.5024 -0.35735,0.63872c-1.15305,0.81373 -2.20394,1.76333 -3.12998,2.8283c-0.8862,1.10304 -1.01819,2.26264 -1.52257,3.5118c-0.77778,1.86196 -3.70978,2.44648 -5.49161,2.47005c-2.17779,0.04714 -3.87477,-1.31987 -4.6714,-3.29968c-0.89563,-2.22493 -0.39125,-4.62427 0.23098,-6.86333h-0.41953c-0.94277,-0.03771 -0.94277,-1.51785 0,-1.48014c1.57602,0.08014 3.1561,-0.00676 4.71383,-0.25926c1.25859,-0.21212 2.91315,-0.45253 3.88419,-1.33873c1.51314,-1.36701 0.08485,-2.6256 -0.94277,-3.63436l-3.13941,-3.09227c-0.20244,-0.21473 -0.26003,-0.52828 -0.1471,-0.80093c0.11293,-0.27265 0.37535,-0.45366 0.67033,-0.46237c1.99395,0 4.05389,-0.03771 5.96771,-0.66465c2.28149,-0.74478 3.35625,-2.28621 4.32729,-4.38386c1.46129,-3.17241 4.50642,-5.20878 7.94751,-4.24244c0.20211,-0.07734 0.4301,-0.04143 0.59866,0.09428c0.8862,0.64579 1.70169,1.11246 2.69631,0.40539c0.34411,-0.24983 0.59394,-0.62223 0.96633,-0.86263c0.85938,-0.49346 1.81705,-0.79122 2.80473,-0.87206c1.14075,-0.15084 2.3522,-0.14141 3.44581,-0.52795c1.84782,-0.65051 2.18722,-2.15422 1.88553,-3.90305c-0.39125,-2.29092 1.0229,-3.77578 3.21954,-4.17645c1.39529,-0.25926 2.80473,-0.14141 4.16231,-0.6128c1.07928,-0.39468 2.04887,-1.04107 2.8283,-1.88553c-2.39519,-0.55128 -4.90744,-0.25474 -7.10845,0.83906c-0.74007,0.37239 -1.41886,0.86263 -2.27206,0.51381c-0.71868,-0.36844 -1.27964,-0.98465 -1.57913,-1.73469c-0.70707,-1.499 -0.50909,-3.27611 0.08485,-4.77511c0.32372,-0.82009 0.76517,-1.58866 1.31044,-2.28149c0.6128,-0.79192 1.56499,-1.68284 1.75354,-2.6256c0.18855,-0.94277 -0.56566,-1.94681 -1.57442,-1.41415c-0.52551,0.34406 -0.93724,0.83617 -1.18317,1.41415c-0.40298,0.89527 -0.87583,1.75742 -1.41415,2.57846c-0.67408,0.91448 -1.53671,1.70169 -2.11651,2.68217c-0.79664,1.34344 -0.67879,2.42762 0.06128,3.74278c1.01819,1.81482 0.15084,3.11584 -0.15556,5.02965c-0.30168,1.72997 -0.66465,3.41753 -2.35691,4.27544c-1.29159,0.65522 -2.77644,0.34882 -3.42695,-1.00405c-0.41953,-0.88149 -0.39596,-1.92324 -0.64108,-2.86601c-0.21289,-0.82249 -0.52969,-1.6145 -0.94277,-2.35691c-1.29159,1.62627 -2.20136,4.0209 -4.59127,3.94076c-2.59261,-0.08485 -4.14345,-3.29968 -4.64312,-5.47275c-0.59866,-2.59732 0.65522,-4.36029 2.88015,-5.54818c2.82358,-1.50842 4.74682,-3.44581 6.73135,-5.93942c2.19511,-2.68883 4.24085,-5.49621 6.12798,-8.40947c1.35758,-2.14008 3.00271,-4.02561 5.78387,-3.77106c2.98857,0.26869 5.73673,2.30035 8.56503,3.18183c2.43705,0.75421 5.37848,0.97576 7.4667,2.57375c0.75893,0.59866 1.67812,1.466 1.32459,2.48419c-0.33043,0.80578 -0.98625,1.43421 -1.8054,1.72997c-2.30035,0.94748 -4.34144,-0.33468 -6.54279,-0.80606c0.87436,2.07046 2.76775,3.53297 4.99194,3.85591c0.67442,0.10553 1.36296,0.0783 2.02695,-0.08014c1.09361,-0.27812 1.44243,-1.18788 1.88553,-2.13065l2.14479,-4.50642c0.36296,-0.75421 1.64984,-0.20741 1.35287,0.57037c-0.02824,0.05675 -0.05342,0.11497 -0.07542,0.17441v0.033c-0.22626,0.64579 0.26397,0.95219 1.48014,0.91448c0.08956,-0.14613 0.18384,-0.29226 0.27812,-0.43839c0.16861,-0.33916 0.29222,-0.69888 0.36768,-1.07004c0.16092,-0.54803 0.4024,-1.0691 0.7165,-1.54614c0.6698,-0.86251 1.58019,-1.50716 2.61617,-1.85253c3.1017,-1.19731 6.68421,-1.57913 9.98389,-2.09294c0.02828,-1.41886 1.24916,-2.3192 2.72459,-2.26735c1.09731,0.12526 2.17816,0.36703 3.22426,0.72122l2.98857,0.72593c-0.98048,-1.89024 -1.97509,-3.78049 -2.8283,-5.71316c-0.59866,-1.35758 -0.83435,-3.16298 0.60337,-4.10574c1.58385,-1.04647 3.08284,0.45724 3.77106,1.78183c0.56095,1.07947 1.03704,1.97509 2.08351,2.67274c0.5471,0.35379 1.12631,0.65524 1.72997,0.90034c-0.14141,-1.56499 0.18384,-3.26668 1.6687,-3.70035c-0.16535,-0.61398 -0.22748,-1.25118 -0.18384,-1.88553c0.00511,-0.26273 0.14745,-0.50359 0.37513,-0.6348c0.22768,-0.13121 0.50745,-0.13359 0.73733,-0.00628c1.59327,0.93334 3.31853,1.90439 5.16164,1.84311c-1.40943,-1.40472 -3.42224,-2.55018 -3.18183,-4.79396c0.23098,-1.98452 2.0128,-2.86601 3.77106,-3.29968c-0.68351,-1.37172 -0.16027,-3.12527 0.91448,-4.28487c1.79597,-1.9421 4.5677,-3.08284 6.95761,-4.07746c0.73536,-0.30168 1.48014,-0.59394 2.22021,-0.88149c0.96162,-0.36768 1.7394,-0.75421 1.7724,-1.82897c0.02357,-0.84849 -0.16498,-1.79597 0.3064,-2.56432c0.28413,-0.57888 0.88835,-0.93025 1.53199,-0.89091c0.7605,0.62851 1.51628,1.25702 2.26735,1.88553c0.7385,0.62851 1.47071,1.25702 2.19664,1.88553l0.05185,0.04242c0.71964,0.63794 1.433,1.28373 2.14008,1.93738l0.05185,0.04714c0.71022,0.65994 1.41258,1.32616 2.10708,1.99866c0.3064,0.32054 0.62694,0.62694 0.94277,0.94277c6.68692,6.60953 12.6361,13.92588 17.74285,21.82031c0.56566,0.87049 1.11875,1.74726 1.65927,2.63032c-0.0009,0.01098 -0.0009,0.02202 0,0.033c0.53423,0.87677 1.05904,1.75826 1.57442,2.64446l0.04242,0.06599c0.50438,0.87206 1.01819,1.75826 1.48957,2.64446l0.06128,0.1037c0.47138,0.87677 0.94277,1.75826 1.41415,2.64446l0.08014,0.14613c0.44781,0.87206 0.8862,1.75354 1.31987,2.63503l0.09428,0.19327c0.4211,0.87363 0.83278,1.74883 1.23502,2.6256c0.03771,0.08485 0.08014,0.16498 0.11785,0.24512c0.39125,0.86263 0.77307,1.73469 1.15017,2.60675l0.13199,0.30168c0.36296,0.8532 0.71179,1.71112 1.06061,2.57375l0.14613,0.36768c0.3394,0.84378 0.65994,1.69698 0.98048,2.55018c0.05185,0.14141 0.10842,0.28283 0.16027,0.42896c0.31111,0.83435 0.60337,1.67341 0.89563,2.51718l0.17441,0.49495c0.27654,0.82649 0.5468,1.65455 0.81078,2.48419c0.06128,0.18855 0.12727,0.37239 0.18384,0.56095c0.26397,0.81078 0.49495,1.63098 0.73536,2.44648c0.06128,0.21212 0.12727,0.41953 0.18384,0.62694c0.23098,0.79664 0.4431,1.59799 0.65522,2.40405c0.06599,0.23569 0.13199,0.46667 0.19327,0.70707c0.20269,0.7825 0.39125,1.5697 0.5798,2.35691c0.06128,0.25926 0.12727,0.51852 0.18855,0.77778c0.17913,0.77307 0.34411,1.54614 0.50909,2.32392c0.06128,0.28283 0.12727,0.56095 0.18384,0.83906c0.15556,0.75893 0.29697,1.51785 0.4431,2.28149c0.05657,0.30168 0.11785,0.60808 0.17441,0.91448c0.13199,0.74007 0.25455,1.48957 0.37239,2.23907c0.05185,0.32525 0.11313,0.65051 0.16498,0.97576c0.10842,0.73536 0.20741,1.47543 0.31111,2.2155c0.04714,0.34411 0.09899,0.68351 0.14141,1.02761c0.09428,0.73536 0.17441,1.47071 0.25455,2.20607c0.04242,0.35354 0.08485,0.70707 0.12256,1.06061c0.07542,0.73536 0.1367,1.47543 0.19798,2.21079c0.02828,0.36296 0.06599,0.72122 0.09428,1.08418c0.06128,0.76364 0.1037,1.53671 0.15084,2.30978c0.01886,0.33468 0.06128,0.66465 0.06128,0.99933c0.04242,0.83435 0.09428,1.6687 0.09428,2.50304c0.00943,0.27812 0.033,0.55623 0.033,0.82963c0,1.13132 0.00157,2.25007 0.00471,3.35625zM276.4756,164.36895c-0.50642,-0.60878 -1.17988,-1.0561 -1.93738,-1.28687c-0.51852,-0.19327 -1.06533,-0.3064 -1.58856,-0.49967c-0.41045,-0.12663 -0.79175,-0.3333 -1.12189,-0.60808c-0.13576,-0.11904 -0.2136,-0.29083 -0.2136,-0.47138c0,-0.18055 0.07784,-0.35234 0.2136,-0.47138c0.24983,-1.03233 1.499,-2.74816 -0.38653,-3.04513c-1.0229,-0.14613 -2.28149,0.28754 -3.29968,0.47138c-1.0779,0.19484 -2.15422,0.40068 -3.22897,0.61751c-0.18159,-0.17268 -0.4371,-0.24389 -0.68183,-0.19003c-0.24473,0.05386 -0.44673,0.22575 -0.53905,0.45872c-0.86263,2.32863 -2.03637,4.99666 -2.27678,7.49027c-0.15556,1.6357 1.19731,2.53604 2.71988,1.91381c1.10304,-0.44781 1.93738,-1.25859 3.12055,-1.6027c1.35287,-0.38653 2.52661,-0.42424 3.65793,0.47138c1.24445,0.98519 3.43167,0.87677 4.84581,0.23569c1.40472,-0.64579 1.6357,-2.29092 0.7165,-3.48352zM286.45949,168.9885c0.1697,1.69698 1.64984,3.03099 3.04042,3.86062c1.20203,0.7165 2.88486,1.0229 3.91719,-0.2734c1.03233,-1.2963 0.13199,-2.43705 -0.69293,-3.45995c-0.32525,-0.40068 -0.50438,-0.08014 -0.23098,-0.66936c0.08956,-0.15084 0.36296,-0.31111 0.47138,-0.44781c0.21658,-0.26149 0.37704,-0.56475 0.47138,-0.89091c0.18817,-0.63098 0.00599,-1.31418 -0.47138,-1.76769c-0.80606,-0.71179 -1.84782,-0.7495 -2.53133,-1.72055c-0.65803,-1.04159 -0.9561,-2.27033 -0.84849,-3.49766c0.73746,-0.59648 0.96267,-1.62461 0.54209,-2.47476c-0.59866,-1.2963 -2.25792,-1.65455 -3.5448,-1.2963c-3.61079,1.00876 -3.72864,5.1145 -1.78183,7.68354c0.50438,0.65994 2.37577,2.00338 2.19664,2.94614c-0.14141,0.73064 -0.60808,1.16432 -0.53738,2.00809zM297.7821,186.81619h-0.13199c-1.6812,0.09118 -3.36106,-0.20223 -4.91181,-0.85792c-1.73469,-0.80606 -2.68688,-2.0788 -3.94547,-3.42695c-0.32054,-0.34411 -1.03233,-1.10775 -1.59327,-0.79192c-0.65051,0.36296 0.05657,1.44243 0.26869,1.84311c0.46118,0.89441 1.00067,1.74623 1.61213,2.54547c1.17374,1.45186 2.7623,2.74816 4.71383,2.8283c1.6357,0.06599 3.33739,-0.63637 3.9879,-2.14008z" fill="#74b140" fill-rule="nonzero"/></g></g></svg>